<svg viewBox="0 0 120 120" width="300" height="300" xmlns="http://www.w3.org/2000/svg">
  <rect width="120" height="120" fill="#f5f7f9"/>
  <g>
    <path d="M14 120 Q16 84 60 84 Q104 84 106 120 Z" fill="#0e8d7f"/>
    <path d="M51 88 L60 83 L69 88 L65 104 L60 111 L55 104 Z" fill="#ffffff" stroke="#dde4ec" stroke-width="1"/>
    <ellipse cx="60" cy="55" rx="41" ry="38" fill="#74c06a"/>
    <ellipse cx="60" cy="64" rx="27" ry="24" fill="#9bd58f"/>
    <ellipse cx="60" cy="74" rx="22" ry="11" fill="#9bd58f" stroke="#3f7a36" stroke-width="1"/>
    <ellipse cx="38" cy="28" rx="18" ry="17" fill="#74c06a"/>
    <ellipse cx="82" cy="28" rx="18" ry="17" fill="#74c06a"/>
    <path d="M71 11 Q82 5 93 12" stroke="#3f7a36" stroke-width="3" fill="none" stroke-linecap="round"/>
    <g>
      <circle cx="38" cy="28" r="12" fill="#ffffff"/>
      <circle cx="40" cy="30" r="5.5" fill="#22303a"/>
    </g>
    <g>
      <circle cx="82" cy="28" r="12" fill="#ffffff"/>
      <circle cx="80" cy="30" r="5.5" fill="#22303a"/>
    </g>
    <circle cx="82" cy="28" r="14" fill="none" stroke="#d9b44a" stroke-width="2.5"/>
    <path d="M82 42 Q88 60 79 74" stroke="#d9b44a" stroke-width="1.4" fill="none"/>
    <ellipse cx="60" cy="58" rx="14" ry="3.5" fill="#6e2b2b"/>
  </g>
</svg>
